G04 Layer_Color=32768*
%FSLAX25Y25*%
%MOIN*%
G70*
G01*
G75*
%ADD59C,0.00394*%
%ADD60C,0.00197*%
%ADD61C,0.00400*%
D59*
X347868Y655006D02*
Y683352D01*
X382120Y655006D02*
Y683352D01*
X347868D02*
X382120D01*
X347868Y655006D02*
X382120D01*
X363025Y669179D02*
X366962D01*
X364994Y667210D02*
Y671147D01*
X297894Y583490D02*
X330994D01*
Y559868D02*
Y583490D01*
X297894Y559868D02*
Y583490D01*
Y559868D02*
X330994D01*
X312625Y571679D02*
X316562D01*
X314594Y569710D02*
Y573647D01*
X338509Y622163D02*
X341293Y624947D01*
X338509D02*
X341293Y622163D01*
X306403Y639650D02*
X309466Y636588D01*
X299722Y632969D02*
X302784Y629907D01*
X309466Y636588D01*
X299722Y632969D02*
X306403Y639650D01*
X303271Y633456D02*
X305916Y636101D01*
X303271D02*
X305916Y633456D01*
X363722Y643088D02*
X366784Y646150D01*
X370403Y636407D02*
X373465Y639469D01*
X366784Y646150D02*
X373465Y639469D01*
X363722Y643088D02*
X370403Y636407D01*
X367271Y642601D02*
X369916Y639956D01*
X367271Y639956D02*
X369916Y642601D01*
X370028Y594703D02*
X374359D01*
X370028Y585254D02*
X374359D01*
Y594703D01*
X370028Y585254D02*
Y594703D01*
X372194Y588109D02*
Y591849D01*
X370324Y589979D02*
X374064D01*
X363003Y594950D02*
X366066Y591888D01*
X356322Y588269D02*
X359384Y585207D01*
X366066Y591888D01*
X356322Y588269D02*
X363003Y594950D01*
X359871Y588756D02*
X362516Y591401D01*
X359871D02*
X362516Y588756D01*
X350803Y591151D02*
X353866Y588088D01*
X344122Y584469D02*
X347184Y581407D01*
X353866Y588088D01*
X344122Y584469D02*
X350803Y591151D01*
X347671Y584956D02*
X350316Y587601D01*
X347671D02*
X350316Y584956D01*
X325122Y588888D02*
X328184Y591951D01*
X331803Y582207D02*
X334865Y585269D01*
X328184Y591951D02*
X334865Y585269D01*
X325122Y588888D02*
X331803Y582207D01*
X328671Y588401D02*
X331316Y585756D01*
X328671Y585756D02*
X331316Y588401D01*
X310418Y653313D02*
Y657644D01*
X300969Y653313D02*
Y657644D01*
Y653313D02*
X310418D01*
X300969Y657644D02*
X310418D01*
X303824Y655479D02*
X307564D01*
X305694Y653609D02*
Y657349D01*
X376028Y625754D02*
X380359D01*
X376028Y635203D02*
X380359D01*
X376028Y625754D02*
Y635203D01*
X380359Y625754D02*
Y635203D01*
X378194Y628609D02*
Y632349D01*
X376324Y630479D02*
X380064D01*
X324003Y590007D02*
X327065Y593069D01*
X317322Y596688D02*
X320384Y599751D01*
X317322Y596688D02*
X324003Y590007D01*
X320384Y599751D02*
X327065Y593069D01*
X320871Y596201D02*
X323516Y593556D01*
X320871D02*
X323516Y596201D01*
X362603Y644207D02*
X365666Y647269D01*
X355922Y650888D02*
X358984Y653951D01*
X355922Y650888D02*
X362603Y644207D01*
X358984Y653951D02*
X365666Y647269D01*
X359471Y650401D02*
X362116Y647756D01*
X359471D02*
X362116Y650401D01*
X314203Y647450D02*
X317266Y644388D01*
X307522Y640769D02*
X310584Y637707D01*
X317266Y644388D01*
X307522Y640769D02*
X314203Y647450D01*
X311071Y641256D02*
X313716Y643901D01*
X311071D02*
X313716Y641256D01*
X309522Y604488D02*
X312584Y607550D01*
X316203Y597807D02*
X319266Y600869D01*
X312584Y607550D02*
X319266Y600869D01*
X309522Y604488D02*
X316203Y597807D01*
X313071Y604001D02*
X315716Y601356D01*
X313071Y601356D02*
X315716Y604001D01*
X363322Y603669D02*
X366384Y600607D01*
X370003Y610351D02*
X373065Y607288D01*
X363322Y603669D02*
X370003Y610351D01*
X366384Y600607D02*
X373065Y607288D01*
X366871Y604156D02*
X369516Y606801D01*
X366871Y606801D02*
X369516Y604156D01*
X370703Y644607D02*
X373765Y647669D01*
X364022Y651288D02*
X367084Y654351D01*
X364022Y651288D02*
X370703Y644607D01*
X367084Y654351D02*
X373765Y647669D01*
X367571Y650801D02*
X370216Y648156D01*
X367571D02*
X370216Y650801D01*
X340828Y676303D02*
X345159D01*
X340828Y666854D02*
X345159D01*
Y676303D01*
X340828Y666854D02*
Y676303D01*
X342994Y669709D02*
Y673449D01*
X341124Y671579D02*
X344864D01*
X358803Y599151D02*
X361865Y596088D01*
X352122Y592469D02*
X355184Y589407D01*
X361865Y596088D01*
X352122Y592469D02*
X358803Y599151D01*
X355671Y592956D02*
X358316Y595601D01*
X355671D02*
X358316Y592956D01*
D60*
X339901Y661138D02*
X377483Y623555D01*
X302318D02*
X339901Y585973D01*
X302318Y623555D02*
X339901Y661138D01*
Y585973D02*
X377483Y623555D01*
D61*
X337894Y664979D02*
Y683379D01*
X297894D02*
X337894D01*
X297894Y664979D02*
Y683379D01*
Y664979D02*
X337894D01*
M02*
