G04 Layer_Color=16711935*
%FSLAX25Y25*%
%MOIN*%
G70*
G01*
G75*
%ADD59C,0.00394*%
D59*
X321093Y565379D02*
G03*
X321093Y565379I-1969J0D01*
G01*
X341869Y600727D02*
G03*
X341869Y600727I-1969J0D01*
G01*
X357710Y655990D02*
Y682368D01*
X372277Y655990D02*
Y682368D01*
X357710D02*
X372277D01*
X357710Y655990D02*
X372277D01*
X322668Y561836D02*
Y581521D01*
X306920Y561836D02*
Y581521D01*
Y561836D02*
X322668D01*
X306920Y581521D02*
X322668D01*
X339901Y651394D02*
X367740Y623555D01*
X312062D02*
X339901Y595716D01*
X312062Y623555D02*
X339901Y651394D01*
Y595716D02*
X367740Y623555D01*
X305638Y638467D02*
X308282Y635823D01*
X300905Y633735D02*
X303550Y631090D01*
X308282Y635823D01*
X300905Y633735D02*
X305638Y638467D01*
X364905Y642323D02*
X367550Y644967D01*
X369638Y637590D02*
X372282Y640235D01*
X367550Y644967D02*
X372282Y640235D01*
X364905Y642323D02*
X369638Y637590D01*
X370324Y593325D02*
X374064D01*
X370324Y586632D02*
X374064D01*
Y593325D01*
X370324Y586632D02*
Y593325D01*
X362238Y593767D02*
X364882Y591123D01*
X357505Y589035D02*
X360150Y586390D01*
X364882Y591123D01*
X357505Y589035D02*
X362238Y593767D01*
X350038Y589967D02*
X352682Y587323D01*
X345305Y585235D02*
X347950Y582590D01*
X352682Y587323D01*
X345305Y585235D02*
X350038Y589967D01*
X326305Y588123D02*
X328950Y590767D01*
X331038Y583390D02*
X333682Y586035D01*
X328950Y590767D02*
X333682Y586035D01*
X326305Y588123D02*
X331038Y583390D01*
X302539Y667844D02*
X333248D01*
Y689379D01*
X302539Y667844D02*
Y689279D01*
Y689380D02*
X333248D01*
X309139Y653609D02*
Y657349D01*
X302249Y653609D02*
Y657349D01*
Y653609D02*
X309139D01*
X302249Y657349D02*
X309139D01*
X376324Y627034D02*
X380064D01*
X376324Y633924D02*
X380064D01*
X376324Y627034D02*
Y633924D01*
X380064Y627034D02*
Y633924D01*
X323307Y591120D02*
X325952Y593765D01*
X318435Y595992D02*
X321080Y598637D01*
X318435Y595992D02*
X323307Y591120D01*
X321080Y598637D02*
X325952Y593765D01*
X361907Y645321D02*
X364552Y647965D01*
X357035Y650192D02*
X359680Y652837D01*
X357035Y650192D02*
X361907Y645321D01*
X359680Y652837D02*
X364552Y647965D01*
X313507Y646337D02*
X316152Y643692D01*
X308635Y641465D02*
X311280Y638821D01*
X316152Y643692D01*
X308635Y641465D02*
X313507Y646337D01*
X310635Y603792D02*
X313280Y606437D01*
X315507Y598920D02*
X318152Y601565D01*
X313280Y606437D02*
X318152Y601565D01*
X310635Y603792D02*
X315507Y598920D01*
X364435Y604365D02*
X367080Y601721D01*
X369307Y609237D02*
X371952Y606592D01*
X364435Y604365D02*
X369307Y609237D01*
X367080Y601721D02*
X371952Y606592D01*
X370007Y645720D02*
X372652Y648365D01*
X365135Y650592D02*
X367780Y653237D01*
X365135Y650592D02*
X370007Y645720D01*
X367780Y653237D02*
X372652Y648365D01*
X341124Y675024D02*
X344864D01*
X341124Y668134D02*
X344864D01*
Y675024D01*
X341124Y668134D02*
Y675024D01*
X358107Y598037D02*
X360752Y595392D01*
X353236Y593165D02*
X355880Y590520D01*
X360752Y595392D01*
X353236Y593165D02*
X358107Y598037D01*
M02*
