G04 Layer_Color=65535*
%FSLAX25Y25*%
%MOIN*%
G70*
G01*
G75*
%ADD36C,0.00984*%
%ADD37C,0.02362*%
%ADD38C,0.00787*%
%ADD39C,0.01000*%
%ADD40C,0.01969*%
D36*
X354068Y682368D02*
G03*
X354068Y682368I-492J0D01*
G01*
X324932Y560635D02*
G03*
X324932Y560635I-492J0D01*
G01*
X342690Y594394D02*
G03*
X342690Y594394I-492J0D01*
G01*
D37*
X341082Y604903D02*
G03*
X341082Y604903I-1181J0D01*
G01*
D38*
X359482Y655990D02*
Y682368D01*
X370505Y655990D02*
Y682368D01*
X359482D02*
X370505D01*
X359482Y655990D02*
X370505D01*
X317943Y561836D02*
Y581521D01*
X311644Y561836D02*
Y581521D01*
Y561836D02*
X317943D01*
X311644Y581521D02*
X317943D01*
X339901Y647775D02*
X364121Y623555D01*
X315681D02*
X339901Y599335D01*
X315681Y623555D02*
X339901Y647775D01*
Y599335D02*
X364121Y623555D01*
X305011Y633248D02*
X306125Y634361D01*
X303063Y635196D02*
X304176Y636310D01*
X369011Y642810D02*
X370125Y641696D01*
X367063Y640861D02*
X368176Y639748D01*
X373572Y589191D02*
Y590766D01*
X370816Y589191D02*
Y590766D01*
X361611Y588548D02*
X362725Y589661D01*
X359663Y590496D02*
X360776Y591610D01*
X349411Y584748D02*
X350525Y585861D01*
X347463Y586696D02*
X348576Y587810D01*
X330411Y588610D02*
X331525Y587496D01*
X328463Y586661D02*
X329576Y585548D01*
X297994Y584479D02*
Y614479D01*
Y584479D02*
X307994D01*
Y614479D01*
X297994D02*
X307994D01*
X331894Y560079D02*
Y570079D01*
X381894D01*
X331894Y560079D02*
X381894D01*
Y570079D01*
X299994Y653579D02*
Y657379D01*
X305694Y653579D02*
Y657438D01*
X376294Y636179D02*
X380094D01*
X376294Y630479D02*
X380153D01*
D39*
X308894Y683079D02*
X326894D01*
X308894Y663979D02*
X326894D01*
X355561Y574645D02*
X354895Y573978D01*
Y572645D01*
X355561Y571979D01*
X358227D01*
X358894Y572645D01*
Y573978D01*
X358227Y574645D01*
X354895Y575978D02*
X358894D01*
X356894D01*
Y578643D01*
X354895D01*
X358894D01*
Y582642D02*
Y579976D01*
X356228Y582642D01*
X355561D01*
X354895Y581976D01*
Y580643D01*
X355561Y579976D01*
X364991Y571979D02*
Y574645D01*
Y573312D01*
X368990D01*
X364991Y578643D02*
Y575978D01*
X368990D01*
Y578643D01*
X366991Y575978D02*
Y577310D01*
X365658Y582642D02*
X364991Y581976D01*
Y580643D01*
X365658Y579976D01*
X366324D01*
X366991Y580643D01*
Y581976D01*
X367657Y582642D01*
X368324D01*
X368990Y581976D01*
Y580643D01*
X368324Y579976D01*
X364991Y583975D02*
Y586641D01*
Y585308D01*
X368990D01*
X298494Y619279D02*
Y623278D01*
X300493D01*
X301160Y622611D01*
Y621278D01*
X300493Y620612D01*
X298494D01*
X302492Y623278D02*
Y619279D01*
X304492D01*
X305158Y619945D01*
Y622611D01*
X304492Y623278D01*
X302492D01*
X306491D02*
X307824D01*
X307158D01*
Y619279D01*
X306491D01*
X307824D01*
X376661Y612245D02*
X375995Y611578D01*
Y610245D01*
X376661Y609579D01*
X379327D01*
X379994Y610245D01*
Y611578D01*
X379327Y612245D01*
X375995Y613578D02*
Y616243D01*
Y614910D01*
X379994D01*
Y617576D02*
X375995D01*
Y619576D01*
X376661Y620242D01*
X377994D01*
X378661Y619576D01*
Y617576D01*
Y618909D02*
X379994Y620242D01*
X375995Y621575D02*
X379994D01*
Y624241D01*
X314860Y656811D02*
X314193Y657478D01*
X312860D01*
X312194Y656811D01*
Y656145D01*
X312860Y655478D01*
X314193D01*
X314860Y654812D01*
Y654145D01*
X314193Y653479D01*
X312860D01*
X312194Y654145D01*
X316192Y657478D02*
Y654145D01*
X316859Y653479D01*
X318192D01*
X318858Y654145D01*
Y657478D01*
X320191Y653479D02*
Y657478D01*
X322190D01*
X322857Y656811D01*
Y655478D01*
X322190Y654812D01*
X320191D01*
X324190Y653479D02*
Y657478D01*
X326189D01*
X326856Y656811D01*
Y655478D01*
X326189Y654812D01*
X324190D01*
X345561Y574645D02*
X344895Y573978D01*
Y572645D01*
X345561Y571979D01*
X348227D01*
X348894Y572645D01*
Y573978D01*
X348227Y574645D01*
X344895Y575978D02*
X348894D01*
X346894D01*
Y578643D01*
X344895D01*
X348894D01*
Y579976D02*
Y581309D01*
Y580643D01*
X344895D01*
X345561Y579976D01*
X374895Y571979D02*
Y574645D01*
Y573312D01*
X378894D01*
Y575978D02*
X374895D01*
Y577977D01*
X375561Y578643D01*
X376894D01*
X377561Y577977D01*
Y575978D01*
Y577310D02*
X378894Y578643D01*
X374895Y579976D02*
Y581309D01*
Y580643D01*
X378894D01*
Y579976D01*
Y581309D01*
X375561Y585974D02*
X374895Y585308D01*
Y583975D01*
X375561Y583308D01*
X378227D01*
X378894Y583975D01*
Y585308D01*
X378227Y585974D01*
X376894D01*
Y584641D01*
X335561Y574645D02*
X334895Y573978D01*
Y572645D01*
X335561Y571979D01*
X338227D01*
X338894Y572645D01*
Y573978D01*
X338227Y574645D01*
X336894D01*
Y573312D01*
X338894Y575978D02*
X334895D01*
X338894Y578643D01*
X334895D01*
Y579976D02*
X338894D01*
Y581976D01*
X338227Y582642D01*
X335561D01*
X334895Y581976D01*
Y579976D01*
D40*
X302994Y616579D02*
X302469D01*
Y617103D01*
X302994D01*
Y616579D01*
M02*
