M48
;Layer_Color=9474304
;FILE_FORMAT=2:5
INCH,TZ
;TYPE=PLATED
T1F00S00C0.01800
T2F00S00C0.03543
;TYPE=NON_PLATED
T3F00S00C0.02559
%
T01
X327494Y564179
X320294Y589479
X354594Y583179
X361594Y600879
X365794Y597279
X373194Y599879
X339894Y621879
X310494Y598879
X307194Y574079
X307094Y568879
X301594Y563579
X301294Y579279
X300494Y639179
X309994Y647779
X309094Y662779
X303794
X300894Y678979
X334994
X342994Y679279
X350894Y678179
X355494
X364994Y670179
Y665179
Y660179
X374394Y651279
X379494Y640079
X350894Y632879
X339894Y633679
X339694Y627779
X313894Y652179
T02
X336894Y565079
X346894
X356894
X366894
X376894
X302994Y589479
Y599479
Y609479
T03
X310020Y670403
X325768
M30
