G04 Layer_Color=255*
%FSLAX25Y25*%
%MOIN*%
G70*
G01*
G75*
%ADD10R,0.09449X0.03937*%
%ADD11R,0.09449X0.12992*%
%ADD12R,0.08661X0.02362*%
G04:AMPARAMS|DCode=13|XSize=21.65mil|YSize=68.9mil|CornerRadius=0mil|HoleSize=0mil|Usage=FLASHONLY|Rotation=135.000|XOffset=0mil|YOffset=0mil|HoleType=Round|Shape=Round|*
%AMOVALD13*
21,1,0.04724,0.02165,0.00000,0.00000,225.0*
1,1,0.02165,0.01670,0.01670*
1,1,0.02165,-0.01670,-0.01670*
%
%ADD13OVALD13*%

G04:AMPARAMS|DCode=14|XSize=21.65mil|YSize=68.9mil|CornerRadius=0mil|HoleSize=0mil|Usage=FLASHONLY|Rotation=225.000|XOffset=0mil|YOffset=0mil|HoleType=Round|Shape=Round|*
%AMOVALD14*
21,1,0.04724,0.02165,0.00000,0.00000,315.0*
1,1,0.02165,-0.01670,0.01670*
1,1,0.02165,0.01670,-0.01670*
%
%ADD14OVALD14*%

G04:AMPARAMS|DCode=15|XSize=35.43mil|YSize=27.56mil|CornerRadius=0mil|HoleSize=0mil|Usage=FLASHONLY|Rotation=315.000|XOffset=0mil|YOffset=0mil|HoleType=Round|Shape=Rectangle|*
%AMROTATEDRECTD15*
4,1,4,-0.02227,0.00278,-0.00278,0.02227,0.02227,-0.00278,0.00278,-0.02227,-0.02227,0.00278,0.0*
%
%ADD15ROTATEDRECTD15*%

G04:AMPARAMS|DCode=16|XSize=35.43mil|YSize=27.56mil|CornerRadius=0mil|HoleSize=0mil|Usage=FLASHONLY|Rotation=45.000|XOffset=0mil|YOffset=0mil|HoleType=Round|Shape=Rectangle|*
%AMROTATEDRECTD16*
4,1,4,-0.00278,-0.02227,-0.02227,-0.00278,0.00278,0.02227,0.02227,0.00278,-0.00278,-0.02227,0.0*
%
%ADD16ROTATEDRECTD16*%

%ADD17R,0.03543X0.02756*%
%ADD18R,0.09055X0.07480*%
%ADD19R,0.01575X0.05512*%
%ADD20R,0.03150X0.03543*%
%ADD21R,0.03543X0.03150*%
G04:AMPARAMS|DCode=22|XSize=35.43mil|YSize=31.5mil|CornerRadius=0mil|HoleSize=0mil|Usage=FLASHONLY|Rotation=225.000|XOffset=0mil|YOffset=0mil|HoleType=Round|Shape=Rectangle|*
%AMROTATEDRECTD22*
4,1,4,0.00139,0.02366,0.02366,0.00139,-0.00139,-0.02366,-0.02366,-0.00139,0.00139,0.02366,0.0*
%
%ADD22ROTATEDRECTD22*%

G04:AMPARAMS|DCode=23|XSize=35.43mil|YSize=31.5mil|CornerRadius=0mil|HoleSize=0mil|Usage=FLASHONLY|Rotation=315.000|XOffset=0mil|YOffset=0mil|HoleType=Round|Shape=Rectangle|*
%AMROTATEDRECTD23*
4,1,4,-0.02366,0.00139,-0.00139,0.02366,0.02366,-0.00139,0.00139,-0.02366,-0.02366,0.00139,0.0*
%
%ADD23ROTATEDRECTD23*%

%ADD31R,0.05906X0.05906*%
%ADD32C,0.05906*%
%ADD33R,0.05906X0.05906*%
D10*
X353576Y678234D02*
D03*
Y669179D02*
D03*
Y660124D02*
D03*
D11*
X376411Y669179D02*
D03*
D12*
X324830Y564179D02*
D03*
Y569179D02*
D03*
Y574179D02*
D03*
Y579179D02*
D03*
X304358Y564179D02*
D03*
Y569179D02*
D03*
Y574179D02*
D03*
Y579179D02*
D03*
D13*
X335307Y596691D02*
D03*
X333080Y598918D02*
D03*
X330853Y601145D02*
D03*
X328626Y603372D02*
D03*
X326399Y605599D02*
D03*
X324172Y607826D02*
D03*
X321945Y610053D02*
D03*
X319718Y612280D02*
D03*
X317491Y614507D02*
D03*
X315263Y616735D02*
D03*
X313036Y618962D02*
D03*
X344494Y650420D02*
D03*
X346721Y648193D02*
D03*
X348948Y645965D02*
D03*
X351175Y643738D02*
D03*
X353403Y641511D02*
D03*
X355630Y639284D02*
D03*
X357857Y637057D02*
D03*
X360084Y634830D02*
D03*
X362311Y632603D02*
D03*
X364538Y630376D02*
D03*
X366765Y628149D02*
D03*
D14*
X313036D02*
D03*
X315263Y630376D02*
D03*
X317491Y632603D02*
D03*
X319718Y634830D02*
D03*
X321945Y637057D02*
D03*
X324172Y639284D02*
D03*
X326399Y641511D02*
D03*
X328626Y643738D02*
D03*
X330853Y645965D02*
D03*
X333080Y648193D02*
D03*
X335307Y650420D02*
D03*
X366765Y618962D02*
D03*
X364538Y616735D02*
D03*
X362311Y614507D02*
D03*
X360084Y612280D02*
D03*
X357857Y610053D02*
D03*
X355630Y607826D02*
D03*
X353403Y605599D02*
D03*
X351175Y603372D02*
D03*
X348948Y601145D02*
D03*
X346721Y598918D02*
D03*
X344494Y596691D02*
D03*
D15*
X306682Y636867D02*
D03*
X302506Y632691D02*
D03*
X363282Y592167D02*
D03*
X359106Y587991D02*
D03*
X351082Y588367D02*
D03*
X346906Y584191D02*
D03*
D16*
X366506Y643367D02*
D03*
X370682Y639191D02*
D03*
X327906Y589167D02*
D03*
X332082Y584991D02*
D03*
D17*
X372194Y592932D02*
D03*
Y587026D02*
D03*
D18*
X332658Y678868D02*
D03*
X303130D02*
D03*
D19*
X312776Y668435D02*
D03*
X315335D02*
D03*
X317894D02*
D03*
X320453D02*
D03*
X323012D02*
D03*
D20*
X308450Y655479D02*
D03*
X302938D02*
D03*
D21*
X378194Y627723D02*
D03*
Y633235D02*
D03*
X342994Y674335D02*
D03*
Y668823D02*
D03*
D22*
X324142Y592930D02*
D03*
X320245Y596828D02*
D03*
X362742Y647130D02*
D03*
X358845Y651027D02*
D03*
X312445Y604628D02*
D03*
X316342Y600730D02*
D03*
X370842Y647530D02*
D03*
X366945Y651428D02*
D03*
D23*
X314342Y644527D02*
D03*
X310445Y640630D02*
D03*
X366245Y603530D02*
D03*
X370142Y607428D02*
D03*
X358942Y596228D02*
D03*
X355045Y592330D02*
D03*
D31*
X302994Y609479D02*
D03*
D32*
Y599479D02*
D03*
Y589479D02*
D03*
X376894Y565079D02*
D03*
X366894D02*
D03*
X356894D02*
D03*
X346894D02*
D03*
D33*
X336894D02*
D03*
M02*
