G04 Layer_Physical_Order=2*
G04 Layer_Color=16711680*
%FSLAX25Y25*%
%MOIN*%
G70*
G01*
G75*
%ADD24C,0.00800*%
%ADD25C,0.01200*%
%ADD28C,0.06000*%
%ADD31R,0.05906X0.05906*%
%ADD32C,0.05906*%
%ADD33R,0.05906X0.05906*%
%ADD34C,0.04000*%
%ADD35C,0.10000*%
G36*
X382172Y642599D02*
X381672Y642441D01*
X381107Y642874D01*
X380994Y642921D01*
Y640079D01*
Y637236D01*
X381107Y637284D01*
X381672Y637717D01*
X382172Y637559D01*
Y559800D01*
X328628D01*
X328538Y560282D01*
X329511Y560685D01*
X330346Y561326D01*
X330988Y562161D01*
X331391Y563134D01*
X331528Y564179D01*
X331391Y565223D01*
X330988Y566196D01*
X330346Y567032D01*
X329941Y567343D01*
Y569165D01*
X332107Y571332D01*
X353294D01*
X354230Y571518D01*
X355024Y572048D01*
X370424Y587448D01*
X370954Y588242D01*
X371141Y589179D01*
Y594365D01*
X372687Y595911D01*
X373194Y595844D01*
X374238Y595982D01*
X375211Y596385D01*
X376046Y597026D01*
X376688Y597861D01*
X377091Y598835D01*
X377228Y599879D01*
X377091Y600923D01*
X376688Y601896D01*
X376046Y602732D01*
X375211Y603373D01*
X374238Y603776D01*
X373194Y603913D01*
X372149Y603776D01*
X371176Y603373D01*
X370341Y602732D01*
X369700Y601896D01*
X369297Y600923D01*
X369205Y600225D01*
X368682Y600085D01*
X368647Y600132D01*
X367811Y600773D01*
X366838Y601176D01*
X365794Y601313D01*
X364782Y601180D01*
X364711Y601714D01*
X364389Y602493D01*
X363876Y603161D01*
X363208Y603674D01*
X363094Y603721D01*
Y600879D01*
X361594D01*
Y599379D01*
X358751D01*
X358799Y599265D01*
X359311Y598596D01*
X359980Y598084D01*
X360758Y597761D01*
X361594Y597651D01*
X361773Y597170D01*
X361897Y596235D01*
X362300Y595261D01*
X362941Y594426D01*
X363347Y594114D01*
Y591150D01*
X358054Y585857D01*
X357555Y585890D01*
X357447Y586032D01*
X356611Y586673D01*
X355638Y587076D01*
X354594Y587213D01*
X353550Y587076D01*
X352576Y586673D01*
X351741Y586032D01*
X351100Y585196D01*
X350697Y584223D01*
X350559Y583179D01*
X350626Y582672D01*
X348780Y580826D01*
X314894D01*
X313957Y580640D01*
X313163Y580109D01*
X310012Y576958D01*
X309211Y577573D01*
X308238Y577976D01*
X307194Y578113D01*
X306150Y577976D01*
X305176Y577573D01*
X304341Y576932D01*
X303700Y576096D01*
X303297Y575123D01*
X303159Y574079D01*
X303297Y573034D01*
X303700Y572061D01*
X304097Y571544D01*
X303600Y570896D01*
X303197Y569923D01*
X303059Y568879D01*
X303197Y567835D01*
X303600Y566861D01*
X303895Y566477D01*
X303538Y566120D01*
X303207Y566374D01*
X303094Y566421D01*
Y565079D01*
X304436D01*
X304389Y565193D01*
X304222Y565410D01*
X304578Y565767D01*
X305076Y565385D01*
X306049Y564982D01*
X307094Y564844D01*
X308138Y564982D01*
X309111Y565385D01*
X309946Y566026D01*
X310588Y566861D01*
X310662Y567040D01*
X310824Y567148D01*
X317207Y573532D01*
X326733D01*
X326924Y573070D01*
X325663Y571809D01*
X325133Y571015D01*
X324947Y570079D01*
X325047Y569576D01*
Y567343D01*
X324641Y567032D01*
X324000Y566196D01*
X323597Y565223D01*
X323459Y564179D01*
X323597Y563134D01*
X324000Y562161D01*
X324641Y561326D01*
X325476Y560685D01*
X326449Y560282D01*
X326359Y559800D01*
X297715D01*
Y578249D01*
X298215Y578349D01*
X298499Y577665D01*
X299011Y576997D01*
X299680Y576484D01*
X299794Y576436D01*
Y579279D01*
Y582121D01*
X299680Y582074D01*
X299011Y581561D01*
X298499Y580893D01*
X298215Y580209D01*
X297715Y580308D01*
Y587973D01*
X298215Y588073D01*
X298668Y586981D01*
X299461Y585946D01*
X300496Y585152D01*
X301701Y584654D01*
X302994Y584483D01*
X304287Y584654D01*
X305491Y585152D01*
X306526Y585946D01*
X307320Y586981D01*
X307434Y587256D01*
X310894D01*
X310894Y587256D01*
X311572Y587346D01*
X312205Y587608D01*
X312748Y588024D01*
X337648Y612924D01*
X337648Y612924D01*
X337742Y613047D01*
X338621Y612780D01*
X339994Y612645D01*
X341366Y612780D01*
X342685Y613180D01*
X343901Y613830D01*
X344967Y614705D01*
X345842Y615771D01*
X346492Y616987D01*
X346892Y618306D01*
X347028Y619679D01*
Y634065D01*
X347630Y634667D01*
X348054Y634384D01*
X348051Y634379D01*
X349394D01*
Y635721D01*
X349388Y635719D01*
X349105Y636143D01*
X369967Y657005D01*
X370842Y658071D01*
X371492Y659287D01*
X371892Y660606D01*
X372028Y661979D01*
Y670179D01*
X371892Y671551D01*
X371492Y672870D01*
X370842Y674087D01*
X369967Y675152D01*
X368901Y676027D01*
X367685Y676677D01*
X366366Y677077D01*
X364994Y677213D01*
X363621Y677077D01*
X362302Y676677D01*
X361086Y676027D01*
X360020Y675152D01*
X359145Y674087D01*
X358495Y672870D01*
X358095Y671551D01*
X357960Y670179D01*
Y664892D01*
X347869Y654801D01*
X316923D01*
X316746Y655032D01*
X315911Y655673D01*
X314938Y656076D01*
X313894Y656213D01*
X312849Y656076D01*
X311876Y655673D01*
X311041Y655032D01*
X310400Y654196D01*
X309997Y653223D01*
X309859Y652179D01*
X309952Y651473D01*
X309983Y651129D01*
X309535Y650946D01*
X309158Y650896D01*
X308380Y650574D01*
X307711Y650061D01*
X307199Y649393D01*
X307151Y649279D01*
X309994D01*
Y647779D01*
X311494D01*
Y644936D01*
X311608Y644984D01*
X312276Y645497D01*
X312789Y646165D01*
X313111Y646943D01*
X313221Y647779D01*
X313214Y647834D01*
X313568Y648187D01*
X313894Y648144D01*
X314938Y648282D01*
X315911Y648685D01*
X316746Y649326D01*
X316923Y649556D01*
X341971D01*
X342162Y649094D01*
X335020Y641952D01*
X334145Y640886D01*
X333495Y639671D01*
X333095Y638351D01*
X332960Y636979D01*
Y619679D01*
X333095Y618306D01*
X333171Y618055D01*
Y615865D01*
X309807Y592501D01*
X306917D01*
X306526Y593011D01*
X305491Y593805D01*
X304287Y594304D01*
X302994Y594474D01*
X301701Y594304D01*
X300496Y593805D01*
X299461Y593011D01*
X298668Y591976D01*
X298215Y590885D01*
X297715Y590984D01*
Y636765D01*
X298189Y636926D01*
X298211Y636897D01*
X298880Y636384D01*
X298994Y636336D01*
Y639179D01*
Y642021D01*
X298880Y641974D01*
X298211Y641461D01*
X298189Y641431D01*
X297715Y641592D01*
Y677043D01*
X298215Y677213D01*
X298611Y676696D01*
X299280Y676184D01*
X299394Y676136D01*
Y678979D01*
Y681821D01*
X299280Y681774D01*
X298611Y681261D01*
X298215Y680745D01*
X297715Y680914D01*
Y683457D01*
X382172D01*
Y642599D01*
D02*
G37*
%LPC*%
G36*
X344494Y682121D02*
Y680779D01*
X345836D01*
X345789Y680893D01*
X345276Y681561D01*
X344607Y682074D01*
X344494Y682121D01*
D02*
G37*
G36*
X341494D02*
X341380Y682074D01*
X340711Y681561D01*
X340198Y680893D01*
X340151Y680779D01*
X341494D01*
Y682121D01*
D02*
G37*
G36*
X336494Y681821D02*
Y680479D01*
X337836D01*
X337789Y680592D01*
X337276Y681261D01*
X336608Y681774D01*
X336494Y681821D01*
D02*
G37*
G36*
X333494D02*
X333380Y681774D01*
X332711Y681261D01*
X332199Y680592D01*
X332151Y680479D01*
X333494D01*
Y681821D01*
D02*
G37*
G36*
X302394D02*
Y680479D01*
X303736D01*
X303689Y680592D01*
X303176Y681261D01*
X302507Y681774D01*
X302394Y681821D01*
D02*
G37*
G36*
X353994Y681021D02*
X353880Y680974D01*
X353586Y680748D01*
X353194Y680473D01*
X352802Y680748D01*
X352507Y680974D01*
X352394Y681021D01*
Y678179D01*
Y675336D01*
X352507Y675384D01*
X352802Y675609D01*
X353194Y675884D01*
X353586Y675609D01*
X353880Y675384D01*
X353994Y675336D01*
Y678179D01*
Y681021D01*
D02*
G37*
G36*
X356994D02*
Y679679D01*
X358336D01*
X358289Y679792D01*
X357776Y680461D01*
X357107Y680974D01*
X356994Y681021D01*
D02*
G37*
G36*
X349394D02*
X349280Y680974D01*
X348611Y680461D01*
X348098Y679792D01*
X348051Y679679D01*
X349394D01*
Y681021D01*
D02*
G37*
G36*
X345836Y677779D02*
X344494D01*
Y676436D01*
X344607Y676484D01*
X345276Y676997D01*
X345789Y677665D01*
X345836Y677779D01*
D02*
G37*
G36*
X341494D02*
X340151D01*
X340198Y677665D01*
X340711Y676997D01*
X341380Y676484D01*
X341494Y676436D01*
Y677779D01*
D02*
G37*
G36*
X337836Y677479D02*
X336494D01*
Y676136D01*
X336608Y676184D01*
X337276Y676696D01*
X337789Y677365D01*
X337836Y677479D01*
D02*
G37*
G36*
X333494D02*
X332151D01*
X332199Y677365D01*
X332711Y676696D01*
X333380Y676184D01*
X333494Y676136D01*
Y677479D01*
D02*
G37*
G36*
X303736D02*
X302394D01*
Y676136D01*
X302507Y676184D01*
X303176Y676696D01*
X303689Y677365D01*
X303736Y677479D01*
D02*
G37*
G36*
X358336Y676679D02*
X356994D01*
Y675336D01*
X357107Y675384D01*
X357776Y675897D01*
X358289Y676565D01*
X358336Y676679D01*
D02*
G37*
G36*
X349394D02*
X348051D01*
X348098Y676565D01*
X348611Y675897D01*
X349280Y675384D01*
X349394Y675336D01*
Y676679D01*
D02*
G37*
G36*
X325768Y672320D02*
X325034Y672174D01*
X324413Y671758D01*
X323997Y671137D01*
X323851Y670403D01*
X323997Y669670D01*
X324413Y669048D01*
X325034Y668633D01*
X325768Y668487D01*
X326501Y668633D01*
X327123Y669048D01*
X327538Y669670D01*
X327684Y670403D01*
X327538Y671137D01*
X327123Y671758D01*
X326501Y672174D01*
X325768Y672320D01*
D02*
G37*
G36*
X310020D02*
X309286Y672174D01*
X308665Y671758D01*
X308249Y671137D01*
X308103Y670403D01*
X308249Y669670D01*
X308665Y669048D01*
X309286Y668633D01*
X310020Y668487D01*
X310753Y668633D01*
X311375Y669048D01*
X311790Y669670D01*
X311936Y670403D01*
X311790Y671137D01*
X311375Y671758D01*
X310753Y672174D01*
X310020Y672320D01*
D02*
G37*
G36*
X307594Y665621D02*
X307480Y665574D01*
X306811Y665061D01*
X306694Y664908D01*
X306194D01*
X306076Y665061D01*
X305408Y665574D01*
X305294Y665621D01*
Y662779D01*
Y659936D01*
X305408Y659984D01*
X306076Y660497D01*
X306194Y660650D01*
X306694D01*
X306811Y660497D01*
X307480Y659984D01*
X307594Y659936D01*
Y662779D01*
Y665621D01*
D02*
G37*
G36*
X310594D02*
Y664279D01*
X311936D01*
X311889Y664393D01*
X311376Y665061D01*
X310707Y665574D01*
X310594Y665621D01*
D02*
G37*
G36*
X302294D02*
X302180Y665574D01*
X301511Y665061D01*
X300998Y664393D01*
X300951Y664279D01*
X302294D01*
Y665621D01*
D02*
G37*
G36*
X311936Y661279D02*
X310594D01*
Y659936D01*
X310707Y659984D01*
X311376Y660497D01*
X311889Y661165D01*
X311936Y661279D01*
D02*
G37*
G36*
X302294D02*
X300951D01*
X300998Y661165D01*
X301511Y660497D01*
X302180Y659984D01*
X302294Y659936D01*
Y661279D01*
D02*
G37*
G36*
X375894Y654121D02*
Y652779D01*
X377236D01*
X377189Y652892D01*
X376676Y653561D01*
X376008Y654074D01*
X375894Y654121D01*
D02*
G37*
G36*
X372894D02*
X372780Y654074D01*
X372111Y653561D01*
X371599Y652892D01*
X371551Y652779D01*
X372894D01*
Y654121D01*
D02*
G37*
G36*
X377236Y649779D02*
X375894D01*
Y648436D01*
X376008Y648484D01*
X376676Y648996D01*
X377189Y649665D01*
X377236Y649779D01*
D02*
G37*
G36*
X372894D02*
X371551D01*
X371599Y649665D01*
X372111Y648996D01*
X372780Y648484D01*
X372894Y648436D01*
Y649779D01*
D02*
G37*
G36*
X308494Y646279D02*
X307151D01*
X307199Y646165D01*
X307711Y645497D01*
X308380Y644984D01*
X308494Y644936D01*
Y646279D01*
D02*
G37*
G36*
X377994Y642921D02*
X377880Y642874D01*
X377211Y642361D01*
X376698Y641692D01*
X376651Y641579D01*
X377994D01*
Y642921D01*
D02*
G37*
G36*
X301994Y642021D02*
Y640679D01*
X303336D01*
X303289Y640793D01*
X302776Y641461D01*
X302108Y641974D01*
X301994Y642021D01*
D02*
G37*
G36*
X377994Y638579D02*
X376651D01*
X376698Y638465D01*
X377211Y637796D01*
X377880Y637284D01*
X377994Y637236D01*
Y638579D01*
D02*
G37*
G36*
X303336Y637679D02*
X301994D01*
Y636336D01*
X302108Y636384D01*
X302776Y636897D01*
X303289Y637565D01*
X303336Y637679D01*
D02*
G37*
G36*
X352394Y635721D02*
Y634379D01*
X353736D01*
X353689Y634492D01*
X353176Y635161D01*
X352507Y635674D01*
X352394Y635721D01*
D02*
G37*
G36*
X353736Y631379D02*
X352394D01*
Y630036D01*
X352507Y630084D01*
X353176Y630596D01*
X353689Y631265D01*
X353736Y631379D01*
D02*
G37*
G36*
X349394D02*
X348051D01*
X348098Y631265D01*
X348611Y630596D01*
X349280Y630084D01*
X349394Y630036D01*
Y631379D01*
D02*
G37*
G36*
X306546Y613031D02*
X299441D01*
Y605926D01*
X306546D01*
Y613031D01*
D02*
G37*
G36*
X360094Y603721D02*
X359980Y603674D01*
X359311Y603161D01*
X358799Y602493D01*
X358751Y602379D01*
X360094D01*
Y603721D01*
D02*
G37*
G36*
X311994Y601721D02*
Y600379D01*
X313336D01*
X313289Y600492D01*
X312776Y601161D01*
X312107Y601674D01*
X311994Y601721D01*
D02*
G37*
G36*
X308994D02*
X308880Y601674D01*
X308211Y601161D01*
X307698Y600492D01*
X307651Y600379D01*
X308994D01*
Y601721D01*
D02*
G37*
G36*
X313336Y597379D02*
X311994D01*
Y596036D01*
X312107Y596084D01*
X312776Y596596D01*
X313289Y597265D01*
X313336Y597379D01*
D02*
G37*
G36*
X308994D02*
X307651D01*
X307698Y597265D01*
X308211Y596596D01*
X308880Y596084D01*
X308994Y596036D01*
Y597379D01*
D02*
G37*
G36*
X302994Y603062D02*
X302066Y602940D01*
X301202Y602582D01*
X300460Y602013D01*
X299890Y601270D01*
X299532Y600406D01*
X299410Y599479D01*
X299532Y598551D01*
X299890Y597687D01*
X300460Y596945D01*
X301202Y596375D01*
X302066Y596017D01*
X302994Y595895D01*
X303921Y596017D01*
X304785Y596375D01*
X305528Y596945D01*
X306097Y597687D01*
X306455Y598551D01*
X306577Y599479D01*
X306455Y600406D01*
X306097Y601270D01*
X305528Y602013D01*
X304785Y602582D01*
X303921Y602940D01*
X302994Y603062D01*
D02*
G37*
G36*
X321794Y592321D02*
Y590979D01*
X323136D01*
X323089Y591092D01*
X322576Y591761D01*
X321907Y592274D01*
X321794Y592321D01*
D02*
G37*
G36*
X318794D02*
X318680Y592274D01*
X318011Y591761D01*
X317498Y591092D01*
X317451Y590979D01*
X318794D01*
Y592321D01*
D02*
G37*
G36*
X323136Y587979D02*
X321794D01*
Y586636D01*
X321907Y586684D01*
X322576Y587196D01*
X323089Y587865D01*
X323136Y587979D01*
D02*
G37*
G36*
X318794D02*
X317451D01*
X317498Y587865D01*
X318011Y587196D01*
X318680Y586684D01*
X318794Y586636D01*
Y587979D01*
D02*
G37*
G36*
X302794Y582121D02*
Y580779D01*
X304136D01*
X304089Y580893D01*
X303576Y581561D01*
X302907Y582074D01*
X302794Y582121D01*
D02*
G37*
G36*
X304136Y577779D02*
X302794D01*
Y576436D01*
X302907Y576484D01*
X303576Y576997D01*
X304089Y577665D01*
X304136Y577779D01*
D02*
G37*
G36*
X341047Y569232D02*
X338394D01*
Y566579D01*
X341047D01*
Y569232D01*
D02*
G37*
G36*
X335394D02*
X332741D01*
Y566579D01*
X335394D01*
Y569232D01*
D02*
G37*
G36*
X300094Y566421D02*
X299980Y566374D01*
X299311Y565861D01*
X298798Y565193D01*
X298751Y565079D01*
X300094D01*
Y566421D01*
D02*
G37*
G36*
X376894Y568662D02*
X375966Y568540D01*
X375102Y568182D01*
X374360Y567613D01*
X373790Y566870D01*
X373432Y566006D01*
X373310Y565079D01*
X373432Y564151D01*
X373790Y563287D01*
X374360Y562545D01*
X375102Y561975D01*
X375966Y561617D01*
X376894Y561495D01*
X377821Y561617D01*
X378685Y561975D01*
X379428Y562545D01*
X379997Y563287D01*
X380355Y564151D01*
X380477Y565079D01*
X380355Y566006D01*
X379997Y566870D01*
X379428Y567613D01*
X378685Y568182D01*
X377821Y568540D01*
X376894Y568662D01*
D02*
G37*
G36*
X366894D02*
X365966Y568540D01*
X365102Y568182D01*
X364360Y567613D01*
X363790Y566870D01*
X363432Y566006D01*
X363310Y565079D01*
X363432Y564151D01*
X363790Y563287D01*
X364360Y562545D01*
X365102Y561975D01*
X365966Y561617D01*
X366894Y561495D01*
X367821Y561617D01*
X368685Y561975D01*
X369428Y562545D01*
X369997Y563287D01*
X370355Y564151D01*
X370477Y565079D01*
X370355Y566006D01*
X369997Y566870D01*
X369428Y567613D01*
X368685Y568182D01*
X367821Y568540D01*
X366894Y568662D01*
D02*
G37*
G36*
X356894D02*
X355966Y568540D01*
X355102Y568182D01*
X354360Y567613D01*
X353790Y566870D01*
X353432Y566006D01*
X353310Y565079D01*
X353432Y564151D01*
X353790Y563287D01*
X354360Y562545D01*
X355102Y561975D01*
X355966Y561617D01*
X356894Y561495D01*
X357821Y561617D01*
X358685Y561975D01*
X359428Y562545D01*
X359997Y563287D01*
X360355Y564151D01*
X360477Y565079D01*
X360355Y566006D01*
X359997Y566870D01*
X359428Y567613D01*
X358685Y568182D01*
X357821Y568540D01*
X356894Y568662D01*
D02*
G37*
G36*
X346894D02*
X345966Y568540D01*
X345102Y568182D01*
X344360Y567613D01*
X343790Y566870D01*
X343432Y566006D01*
X343310Y565079D01*
X343432Y564151D01*
X343790Y563287D01*
X344360Y562545D01*
X345102Y561975D01*
X345966Y561617D01*
X346894Y561495D01*
X347821Y561617D01*
X348685Y561975D01*
X349428Y562545D01*
X349997Y563287D01*
X350355Y564151D01*
X350477Y565079D01*
X350355Y566006D01*
X349997Y566870D01*
X349428Y567613D01*
X348685Y568182D01*
X347821Y568540D01*
X346894Y568662D01*
D02*
G37*
G36*
X341047Y563579D02*
X338394D01*
Y560926D01*
X341047D01*
Y563579D01*
D02*
G37*
G36*
X335394D02*
X332741D01*
Y560926D01*
X335394D01*
Y563579D01*
D02*
G37*
G36*
X304436Y562079D02*
X303094D01*
Y560736D01*
X303207Y560784D01*
X303876Y561297D01*
X304389Y561965D01*
X304436Y562079D01*
D02*
G37*
G36*
X300094D02*
X298751D01*
X298798Y561965D01*
X299311Y561297D01*
X299980Y560784D01*
X300094Y560736D01*
Y562079D01*
D02*
G37*
%LPD*%
D24*
X368694Y595379D02*
X373194Y599879D01*
X368694Y589179D02*
Y595379D01*
X353294Y573779D02*
X368694Y589179D01*
X316194Y575979D02*
X351636D01*
X309094Y568879D02*
X316194Y575979D01*
X307094Y568879D02*
X309094D01*
X351636Y575979D02*
X365794Y590136D01*
X331094Y573779D02*
X353294D01*
X327394Y570079D02*
X331094Y573779D01*
X349794Y578379D02*
X354594Y583179D01*
X314894Y578379D02*
X349794D01*
X365794Y590136D02*
Y597279D01*
X310494Y573979D02*
X314894Y578379D01*
X307194Y573979D02*
X310494D01*
X327394Y570079D02*
X327494Y569979D01*
Y564679D02*
Y569979D01*
D25*
X310894Y589879D02*
X335794Y614779D01*
X305194Y589879D02*
X310894D01*
X304294Y590779D02*
X305194Y589879D01*
X335794Y614779D02*
Y619179D01*
X313894Y652179D02*
X352294D01*
D28*
X325594Y678979D02*
X355794D01*
X309394Y662779D02*
X325594Y678979D01*
X302494Y662779D02*
X309394D01*
D31*
X302994Y609479D02*
D03*
D32*
Y599479D02*
D03*
Y589479D02*
D03*
X376894Y565079D02*
D03*
X366894D02*
D03*
X356894D02*
D03*
X346894D02*
D03*
D33*
X336894D02*
D03*
D34*
X313894Y652179D02*
D03*
X339694Y627779D02*
D03*
X339894Y621879D02*
D03*
Y633679D02*
D03*
X350894Y632879D02*
D03*
X300494Y639179D02*
D03*
X310494Y598879D02*
D03*
X320294Y589479D02*
D03*
X374394Y651279D02*
D03*
X364994Y660179D02*
D03*
X309994Y647779D02*
D03*
X309094Y662779D02*
D03*
X303794D02*
D03*
X364994Y665179D02*
D03*
Y670179D02*
D03*
X355494Y678179D02*
D03*
X350894D02*
D03*
X342994Y679279D02*
D03*
X334994Y678979D02*
D03*
X300894D02*
D03*
X301294Y579279D02*
D03*
X301594Y563579D02*
D03*
X379494Y640079D02*
D03*
X361594Y600879D02*
D03*
X373194Y599879D02*
D03*
X365794Y597279D02*
D03*
X354594Y583179D02*
D03*
X307194Y574079D02*
D03*
X307094Y568879D02*
D03*
X327494Y564179D02*
D03*
D35*
X339994Y619679D02*
Y636979D01*
X364994Y661979D01*
Y670179D01*
M02*
