G04 Layer_Physical_Order=1*
G04 Layer_Color=255*
%FSLAX25Y25*%
%MOIN*%
G70*
G01*
G75*
%ADD10R,0.09449X0.03937*%
%ADD11R,0.09449X0.12992*%
%ADD12R,0.08661X0.02362*%
G04:AMPARAMS|DCode=13|XSize=21.65mil|YSize=68.9mil|CornerRadius=0mil|HoleSize=0mil|Usage=FLASHONLY|Rotation=135.000|XOffset=0mil|YOffset=0mil|HoleType=Round|Shape=Round|*
%AMOVALD13*
21,1,0.04724,0.02165,0.00000,0.00000,225.0*
1,1,0.02165,0.01670,0.01670*
1,1,0.02165,-0.01670,-0.01670*
%
%ADD13OVALD13*%

G04:AMPARAMS|DCode=14|XSize=21.65mil|YSize=68.9mil|CornerRadius=0mil|HoleSize=0mil|Usage=FLASHONLY|Rotation=225.000|XOffset=0mil|YOffset=0mil|HoleType=Round|Shape=Round|*
%AMOVALD14*
21,1,0.04724,0.02165,0.00000,0.00000,315.0*
1,1,0.02165,-0.01670,0.01670*
1,1,0.02165,0.01670,-0.01670*
%
%ADD14OVALD14*%

G04:AMPARAMS|DCode=15|XSize=35.43mil|YSize=27.56mil|CornerRadius=0mil|HoleSize=0mil|Usage=FLASHONLY|Rotation=315.000|XOffset=0mil|YOffset=0mil|HoleType=Round|Shape=Rectangle|*
%AMROTATEDRECTD15*
4,1,4,-0.02227,0.00278,-0.00278,0.02227,0.02227,-0.00278,0.00278,-0.02227,-0.02227,0.00278,0.0*
%
%ADD15ROTATEDRECTD15*%

G04:AMPARAMS|DCode=16|XSize=35.43mil|YSize=27.56mil|CornerRadius=0mil|HoleSize=0mil|Usage=FLASHONLY|Rotation=45.000|XOffset=0mil|YOffset=0mil|HoleType=Round|Shape=Rectangle|*
%AMROTATEDRECTD16*
4,1,4,-0.00278,-0.02227,-0.02227,-0.00278,0.00278,0.02227,0.02227,0.00278,-0.00278,-0.02227,0.0*
%
%ADD16ROTATEDRECTD16*%

%ADD17R,0.03543X0.02756*%
%ADD18R,0.09055X0.07480*%
%ADD19R,0.01575X0.05512*%
%ADD20R,0.03150X0.03543*%
%ADD21R,0.03543X0.03150*%
G04:AMPARAMS|DCode=22|XSize=35.43mil|YSize=31.5mil|CornerRadius=0mil|HoleSize=0mil|Usage=FLASHONLY|Rotation=225.000|XOffset=0mil|YOffset=0mil|HoleType=Round|Shape=Rectangle|*
%AMROTATEDRECTD22*
4,1,4,0.00139,0.02366,0.02366,0.00139,-0.00139,-0.02366,-0.02366,-0.00139,0.00139,0.02366,0.0*
%
%ADD22ROTATEDRECTD22*%

G04:AMPARAMS|DCode=23|XSize=35.43mil|YSize=31.5mil|CornerRadius=0mil|HoleSize=0mil|Usage=FLASHONLY|Rotation=315.000|XOffset=0mil|YOffset=0mil|HoleType=Round|Shape=Rectangle|*
%AMROTATEDRECTD23*
4,1,4,-0.02366,0.00139,-0.00139,0.02366,0.02366,-0.00139,0.00139,-0.02366,-0.02366,0.00139,0.0*
%
%ADD23ROTATEDRECTD23*%

%ADD24C,0.00800*%
%ADD25C,0.01200*%
%ADD26C,0.02000*%
%ADD27C,0.04000*%
%ADD28C,0.06000*%
%ADD29C,0.05000*%
%ADD30C,0.03000*%
%ADD31R,0.05906X0.05906*%
%ADD32C,0.05906*%
%ADD33R,0.05906X0.05906*%
%ADD34C,0.04000*%
D10*
X353576Y678234D02*
D03*
Y669179D02*
D03*
Y660124D02*
D03*
D11*
X376411Y669179D02*
D03*
D12*
X324830Y564179D02*
D03*
Y569179D02*
D03*
Y574179D02*
D03*
Y579179D02*
D03*
X304358Y564179D02*
D03*
Y569179D02*
D03*
Y574179D02*
D03*
Y579179D02*
D03*
D13*
X335307Y596691D02*
D03*
X333080Y598918D02*
D03*
X330853Y601145D02*
D03*
X328626Y603372D02*
D03*
X326399Y605599D02*
D03*
X324172Y607826D02*
D03*
X321945Y610053D02*
D03*
X319718Y612280D02*
D03*
X317491Y614507D02*
D03*
X315263Y616735D02*
D03*
X313036Y618962D02*
D03*
X344494Y650420D02*
D03*
X346721Y648193D02*
D03*
X348948Y645965D02*
D03*
X351175Y643738D02*
D03*
X353403Y641511D02*
D03*
X355630Y639284D02*
D03*
X357857Y637057D02*
D03*
X360084Y634830D02*
D03*
X362311Y632603D02*
D03*
X364538Y630376D02*
D03*
X366765Y628149D02*
D03*
D14*
X313036D02*
D03*
X315263Y630376D02*
D03*
X317491Y632603D02*
D03*
X319718Y634830D02*
D03*
X321945Y637057D02*
D03*
X324172Y639284D02*
D03*
X326399Y641511D02*
D03*
X328626Y643738D02*
D03*
X330853Y645965D02*
D03*
X333080Y648193D02*
D03*
X335307Y650420D02*
D03*
X366765Y618962D02*
D03*
X364538Y616735D02*
D03*
X362311Y614507D02*
D03*
X360084Y612280D02*
D03*
X357857Y610053D02*
D03*
X355630Y607826D02*
D03*
X353403Y605599D02*
D03*
X351175Y603372D02*
D03*
X348948Y601145D02*
D03*
X346721Y598918D02*
D03*
X344494Y596691D02*
D03*
D15*
X306682Y636867D02*
D03*
X302506Y632691D02*
D03*
X363282Y592167D02*
D03*
X359106Y587991D02*
D03*
X351082Y588367D02*
D03*
X346906Y584191D02*
D03*
D16*
X366506Y643367D02*
D03*
X370682Y639191D02*
D03*
X327906Y589167D02*
D03*
X332082Y584991D02*
D03*
D17*
X372194Y592932D02*
D03*
Y587026D02*
D03*
D18*
X332658Y678868D02*
D03*
X303130D02*
D03*
D19*
X312776Y668435D02*
D03*
X315335D02*
D03*
X317894D02*
D03*
X320453D02*
D03*
X323012D02*
D03*
D20*
X308450Y655479D02*
D03*
X302938D02*
D03*
D21*
X378194Y627723D02*
D03*
Y633235D02*
D03*
X342994Y674335D02*
D03*
Y668823D02*
D03*
D22*
X324142Y592930D02*
D03*
X320245Y596828D02*
D03*
X362742Y647130D02*
D03*
X358845Y651027D02*
D03*
X312445Y604628D02*
D03*
X316342Y600730D02*
D03*
X370842Y647530D02*
D03*
X366945Y651428D02*
D03*
D23*
X314342Y644527D02*
D03*
X310445Y640630D02*
D03*
X366245Y603530D02*
D03*
X370142Y607428D02*
D03*
X358942Y596228D02*
D03*
X355045Y592330D02*
D03*
D24*
X372094Y583179D02*
Y587026D01*
Y583179D02*
X376594Y578679D01*
Y565979D02*
Y578679D01*
X358394Y587579D02*
X366894Y579079D01*
Y565079D02*
Y579079D01*
X378494Y605179D02*
Y609379D01*
X371994Y615879D02*
X378494Y609379D01*
X369848Y615879D02*
X371994D01*
X366765Y618962D02*
X369848Y615879D01*
X373194Y599879D02*
X378494Y605179D01*
X372094Y598779D02*
X373194Y599879D01*
X348294Y591155D02*
X351082Y588367D01*
X348294Y591155D02*
Y592891D01*
X356894Y565079D02*
Y572979D01*
X345994Y583879D02*
X356894Y572979D01*
X368894Y612379D02*
X370594D01*
X364538Y616735D02*
X368894Y612379D01*
X308194Y604679D02*
Y609579D01*
X302994Y599479D02*
X308194Y604679D01*
Y609579D02*
X315263Y616648D01*
X305394Y611279D02*
X313036Y618921D01*
X325794Y597479D02*
X329094Y594179D01*
Y591679D02*
Y594179D01*
X327906Y590491D02*
X329094Y591679D01*
X327906Y589167D02*
Y590491D01*
X325794Y597479D02*
Y600479D01*
X327894Y602579D01*
X320894Y578979D02*
Y583579D01*
X326294Y588979D01*
X346463Y594722D02*
X348294Y592891D01*
X362694Y594079D02*
X363844Y592929D01*
X374894Y606279D02*
Y608079D01*
X370594Y612379D02*
X374894Y608079D01*
X362694Y594079D02*
X374894Y606279D01*
X372094Y592879D02*
Y598779D01*
X351494Y586679D02*
X354794Y583379D01*
X346894Y565079D02*
Y572079D01*
X332794Y586179D02*
X346894Y572079D01*
D25*
X317894Y664679D02*
X318294Y664279D01*
Y650479D02*
Y664279D01*
X320094Y664179D02*
X320453Y664538D01*
X320094Y651224D02*
Y664179D01*
Y651224D02*
X324639Y646679D01*
X363494Y633579D02*
X365194Y635279D01*
Y640979D01*
X366994Y642779D01*
X313894Y652179D02*
Y652479D01*
X311694Y654679D02*
X313894Y652479D01*
X309494Y654679D02*
X311694D01*
X300494Y635779D02*
X302394Y633879D01*
X300494Y635779D02*
Y639179D01*
X379494Y632479D02*
Y640079D01*
X320453Y664538D02*
Y668435D01*
X317894Y664679D02*
Y668435D01*
X318294Y650479D02*
X323513Y645260D01*
X325686Y646679D02*
X328626Y643738D01*
X324639Y646679D02*
X325686D01*
X323513Y644398D02*
X326399Y641511D01*
X323513Y644398D02*
Y645260D01*
X303794Y640879D02*
X307394Y637279D01*
X303794Y640879D02*
Y655479D01*
X354994Y590879D02*
X355094D01*
X358394Y587579D01*
X377050Y627723D02*
X378194D01*
X369594Y638479D02*
X373894Y634179D01*
Y630879D02*
X377050Y627723D01*
X373894Y630879D02*
Y634179D01*
D26*
X350894Y633279D02*
Y638679D01*
X357594Y645379D01*
X353894Y622879D02*
X369345Y607428D01*
X358794Y613379D02*
X364094Y608079D01*
Y606479D02*
Y608079D01*
X310494Y598879D02*
Y601979D01*
X321900Y600892D02*
X331849Y610597D01*
X321881Y599366D02*
X321900Y600892D01*
X320694Y598179D02*
X321881Y599366D01*
X320694Y596379D02*
Y598179D01*
X310494Y601979D02*
X315994Y607479D01*
X319394D01*
X321945Y610030D01*
X320294Y589479D02*
Y589879D01*
X323345Y592930D01*
X328333Y612066D02*
X331881Y612091D01*
X316255Y599818D02*
X328333Y612066D01*
X363494Y656379D02*
Y658979D01*
X349594Y642479D02*
X363494Y656379D01*
X360194Y645379D02*
X361994Y647179D01*
X357594Y645379D02*
X360194D01*
X310194Y647779D02*
X316494Y641479D01*
Y638079D02*
Y641479D01*
Y638079D02*
X319718Y634855D01*
X309994Y647779D02*
X310194D01*
X310445Y639528D02*
X323294Y626679D01*
X358942Y596228D02*
Y597827D01*
X365844Y604729D01*
X364094Y606479D02*
X365844Y604729D01*
D27*
X339894Y621879D02*
X353494D01*
X331881Y612091D02*
X331894Y612079D01*
X339694Y619879D01*
Y621179D01*
X323794Y627579D02*
X338794D01*
X342994Y661679D02*
Y667379D01*
X370842Y647627D02*
X374444Y651229D01*
X366494Y651879D02*
Y660979D01*
X342994Y674779D02*
Y679279D01*
D28*
X339894Y621379D02*
Y633679D01*
X363794Y669279D02*
X365494Y667579D01*
Y659579D02*
Y667579D01*
X325294Y662379D02*
X327494Y660179D01*
X354294D01*
X353576Y669279D02*
X363794D01*
D29*
X310694Y662779D02*
X310994Y663079D01*
X303794Y662779D02*
X310694D01*
D30*
X310994Y663079D02*
X312094Y664179D01*
Y666979D01*
X323594Y662279D02*
Y667279D01*
X300894Y678979D02*
X334994D01*
X300894D02*
X303019D01*
X303130Y678868D01*
D31*
X302994Y609479D02*
D03*
D32*
Y599479D02*
D03*
Y589479D02*
D03*
X376894Y565079D02*
D03*
X366894D02*
D03*
X356894D02*
D03*
X346894D02*
D03*
D33*
X336894D02*
D03*
D34*
X313894Y652179D02*
D03*
X339694Y627779D02*
D03*
X339894Y621879D02*
D03*
Y633679D02*
D03*
X350894Y632879D02*
D03*
X300494Y639179D02*
D03*
X310494Y598879D02*
D03*
X320294Y589479D02*
D03*
X374394Y651279D02*
D03*
X364994Y660179D02*
D03*
X309994Y647779D02*
D03*
X309094Y662779D02*
D03*
X303794D02*
D03*
X364994Y665179D02*
D03*
Y670179D02*
D03*
X355494Y678179D02*
D03*
X350894D02*
D03*
X342994Y679279D02*
D03*
X334994Y678979D02*
D03*
X300894D02*
D03*
X301294Y579279D02*
D03*
X301594Y563579D02*
D03*
X379494Y640079D02*
D03*
X361594Y600879D02*
D03*
X373194Y599879D02*
D03*
X365794Y597279D02*
D03*
X354594Y583179D02*
D03*
X307194Y574079D02*
D03*
X307094Y568879D02*
D03*
X327494Y564179D02*
D03*
M02*
