G04 Layer_Color=8388736*
%FSLAX25Y25*%
%MOIN*%
G70*
G01*
G75*
%ADD41R,0.10249X0.04737*%
%ADD42R,0.10249X0.13792*%
%ADD43R,0.09461X0.03162*%
G04:AMPARAMS|DCode=44|XSize=29.65mil|YSize=76.9mil|CornerRadius=0mil|HoleSize=0mil|Usage=FLASHONLY|Rotation=135.000|XOffset=0mil|YOffset=0mil|HoleType=Round|Shape=Round|*
%AMOVALD44*
21,1,0.04724,0.02965,0.00000,0.00000,225.0*
1,1,0.02965,0.01670,0.01670*
1,1,0.02965,-0.01670,-0.01670*
%
%ADD44OVALD44*%

G04:AMPARAMS|DCode=45|XSize=29.65mil|YSize=76.9mil|CornerRadius=0mil|HoleSize=0mil|Usage=FLASHONLY|Rotation=225.000|XOffset=0mil|YOffset=0mil|HoleType=Round|Shape=Round|*
%AMOVALD45*
21,1,0.04724,0.02965,0.00000,0.00000,315.0*
1,1,0.02965,-0.01670,0.01670*
1,1,0.02965,0.01670,-0.01670*
%
%ADD45OVALD45*%

G04:AMPARAMS|DCode=46|XSize=43.43mil|YSize=35.56mil|CornerRadius=0mil|HoleSize=0mil|Usage=FLASHONLY|Rotation=315.000|XOffset=0mil|YOffset=0mil|HoleType=Round|Shape=Rectangle|*
%AMROTATEDRECTD46*
4,1,4,-0.02793,0.00278,-0.00278,0.02793,0.02793,-0.00278,0.00278,-0.02793,-0.02793,0.00278,0.0*
%
%ADD46ROTATEDRECTD46*%

G04:AMPARAMS|DCode=47|XSize=43.43mil|YSize=35.56mil|CornerRadius=0mil|HoleSize=0mil|Usage=FLASHONLY|Rotation=45.000|XOffset=0mil|YOffset=0mil|HoleType=Round|Shape=Rectangle|*
%AMROTATEDRECTD47*
4,1,4,-0.00278,-0.02793,-0.02793,-0.00278,0.00278,0.02793,0.02793,0.00278,-0.00278,-0.02793,0.0*
%
%ADD47ROTATEDRECTD47*%

%ADD48R,0.04343X0.03556*%
%ADD49R,0.09855X0.08280*%
%ADD50R,0.02375X0.06312*%
%ADD51R,0.03950X0.04343*%
%ADD52R,0.04343X0.03950*%
G04:AMPARAMS|DCode=53|XSize=43.43mil|YSize=39.5mil|CornerRadius=0mil|HoleSize=0mil|Usage=FLASHONLY|Rotation=225.000|XOffset=0mil|YOffset=0mil|HoleType=Round|Shape=Rectangle|*
%AMROTATEDRECTD53*
4,1,4,0.00139,0.02932,0.02932,0.00139,-0.00139,-0.02932,-0.02932,-0.00139,0.00139,0.02932,0.0*
%
%ADD53ROTATEDRECTD53*%

G04:AMPARAMS|DCode=54|XSize=43.43mil|YSize=39.5mil|CornerRadius=0mil|HoleSize=0mil|Usage=FLASHONLY|Rotation=315.000|XOffset=0mil|YOffset=0mil|HoleType=Round|Shape=Rectangle|*
%AMROTATEDRECTD54*
4,1,4,-0.02932,0.00139,-0.00139,0.02932,0.02932,-0.00139,0.00139,-0.02932,-0.02932,0.00139,0.0*
%
%ADD54ROTATEDRECTD54*%

%ADD55R,0.06706X0.06706*%
%ADD56C,0.06706*%
%ADD57C,0.00800*%
%ADD58R,0.06706X0.06706*%
D41*
X353576Y678234D02*
D03*
Y669179D02*
D03*
Y660124D02*
D03*
D42*
X376411Y669179D02*
D03*
D43*
X324830Y564179D02*
D03*
Y569179D02*
D03*
Y574179D02*
D03*
Y579179D02*
D03*
X304358Y564179D02*
D03*
Y569179D02*
D03*
Y574179D02*
D03*
Y579179D02*
D03*
D44*
X335307Y596691D02*
D03*
X333080Y598918D02*
D03*
X330853Y601145D02*
D03*
X328626Y603372D02*
D03*
X326399Y605599D02*
D03*
X324172Y607826D02*
D03*
X321945Y610053D02*
D03*
X319718Y612280D02*
D03*
X317491Y614507D02*
D03*
X315263Y616735D02*
D03*
X313036Y618962D02*
D03*
X344494Y650420D02*
D03*
X346721Y648193D02*
D03*
X348948Y645965D02*
D03*
X351175Y643738D02*
D03*
X353403Y641511D02*
D03*
X355630Y639284D02*
D03*
X357857Y637057D02*
D03*
X360084Y634830D02*
D03*
X362311Y632603D02*
D03*
X364538Y630376D02*
D03*
X366765Y628149D02*
D03*
D45*
X313036D02*
D03*
X315263Y630376D02*
D03*
X317491Y632603D02*
D03*
X319718Y634830D02*
D03*
X321945Y637057D02*
D03*
X324172Y639284D02*
D03*
X326399Y641511D02*
D03*
X328626Y643738D02*
D03*
X330853Y645965D02*
D03*
X333080Y648193D02*
D03*
X335307Y650420D02*
D03*
X366765Y618962D02*
D03*
X364538Y616735D02*
D03*
X362311Y614507D02*
D03*
X360084Y612280D02*
D03*
X357857Y610053D02*
D03*
X355630Y607826D02*
D03*
X353403Y605599D02*
D03*
X351175Y603372D02*
D03*
X348948Y601145D02*
D03*
X346721Y598918D02*
D03*
X344494Y596691D02*
D03*
D46*
X306682Y636867D02*
D03*
X302506Y632691D02*
D03*
X363282Y592167D02*
D03*
X359106Y587991D02*
D03*
X351082Y588367D02*
D03*
X346906Y584191D02*
D03*
D47*
X366506Y643367D02*
D03*
X370682Y639191D02*
D03*
X327906Y589167D02*
D03*
X332082Y584991D02*
D03*
D48*
X372194Y592932D02*
D03*
Y587026D02*
D03*
D49*
X332658Y678868D02*
D03*
X303130D02*
D03*
D50*
X312776Y668435D02*
D03*
X315335D02*
D03*
X317894D02*
D03*
X320453D02*
D03*
X323012D02*
D03*
D51*
X308450Y655479D02*
D03*
X302938D02*
D03*
D52*
X378194Y627723D02*
D03*
Y633235D02*
D03*
X342994Y674335D02*
D03*
Y668823D02*
D03*
D53*
X324142Y592930D02*
D03*
X320245Y596828D02*
D03*
X362742Y647130D02*
D03*
X358845Y651027D02*
D03*
X312445Y604628D02*
D03*
X316342Y600730D02*
D03*
X370842Y647530D02*
D03*
X366945Y651428D02*
D03*
D54*
X314342Y644527D02*
D03*
X310445Y640630D02*
D03*
X366245Y603530D02*
D03*
X370142Y607428D02*
D03*
X358942Y596228D02*
D03*
X355045Y592330D02*
D03*
D55*
X302994Y609479D02*
D03*
D56*
Y599479D02*
D03*
Y589479D02*
D03*
X376894Y565079D02*
D03*
X366894D02*
D03*
X356894D02*
D03*
X346894D02*
D03*
D57*
X310020Y670403D02*
D03*
X325768D02*
D03*
D58*
X336894Y565079D02*
D03*
M02*
